<mxfile host="app.diagrams.net" modified="2022-03-17T13:33:03.198Z" agent="5.0 (Windows NT 10.0; Win64; x64) AppleWebKit/537.36 (KHTML, like Gecko) Chrome/99.0.4844.51 Safari/537.36" etag="0vValiIFpSCmy56B93mB" version="17.1.3" type="github">
  <diagram id="C5RBs43oDa-KdzZeNtuy" name="Page-1">
    <mxGraphModel dx="868" dy="482" grid="1" gridSize="10" guides="1" tooltips="1" connect="1" arrows="1" fold="1" page="1" pageScale="1" pageWidth="827" pageHeight="1169" math="0" shadow="0">
      <root>
        <mxCell id="WIyWlLk6GJQsqaUBKTNV-0" />
        <mxCell id="WIyWlLk6GJQsqaUBKTNV-1" parent="WIyWlLk6GJQsqaUBKTNV-0" />
        <mxCell id="JPNy9vTnPbDDHeb4EokP-0" value="Inicio" style="rounded=1;whiteSpace=wrap;html=1;" parent="WIyWlLk6GJQsqaUBKTNV-1" vertex="1">
          <mxGeometry x="30" y="150" width="120" height="60" as="geometry" />
        </mxCell>
        <mxCell id="JPNy9vTnPbDDHeb4EokP-1" value="Fim" style="rounded=1;whiteSpace=wrap;html=1;" parent="WIyWlLk6GJQsqaUBKTNV-1" vertex="1">
          <mxGeometry x="180" y="150" width="120" height="60" as="geometry" />
        </mxCell>
        <mxCell id="JPNy9vTnPbDDHeb4EokP-2" value="Entrada" style="shape=parallelogram;perimeter=parallelogramPerimeter;whiteSpace=wrap;html=1;fixedSize=1;" parent="WIyWlLk6GJQsqaUBKTNV-1" vertex="1">
          <mxGeometry x="30" y="250" width="120" height="60" as="geometry" />
        </mxCell>
        <mxCell id="JPNy9vTnPbDDHeb4EokP-3" value="A&amp;lt;B" style="shape=document;whiteSpace=wrap;html=1;boundedLbl=1;" parent="WIyWlLk6GJQsqaUBKTNV-1" vertex="1">
          <mxGeometry x="750" y="500" width="120" height="80" as="geometry" />
        </mxCell>
        <mxCell id="JPNy9vTnPbDDHeb4EokP-4" value="Processamento" style="rounded=0;whiteSpace=wrap;html=1;" parent="WIyWlLk6GJQsqaUBKTNV-1" vertex="1">
          <mxGeometry x="30" y="340" width="120" height="60" as="geometry" />
        </mxCell>
        <mxCell id="JPNy9vTnPbDDHeb4EokP-5" value="DecisÃ£o" style="rhombus;whiteSpace=wrap;html=1;" parent="WIyWlLk6GJQsqaUBKTNV-1" vertex="1">
          <mxGeometry x="200" y="340" width="80" height="80" as="geometry" />
        </mxCell>
        <mxCell id="JPNy9vTnPbDDHeb4EokP-6" value="fluxo do sentido" style="endArrow=classic;html=1;rounded=0;" parent="WIyWlLk6GJQsqaUBKTNV-1" edge="1">
          <mxGeometry y="10" width="50" height="50" relative="1" as="geometry">
            <mxPoint x="100" y="460" as="sourcePoint" />
            <mxPoint x="200" y="460" as="targetPoint" />
            <mxPoint as="offset" />
          </mxGeometry>
        </mxCell>
        <mxCell id="JPNy9vTnPbDDHeb4EokP-12" style="edgeStyle=orthogonalEdgeStyle;rounded=0;orthogonalLoop=1;jettySize=auto;html=1;exitX=0.5;exitY=1;exitDx=0;exitDy=0;entryX=0.5;entryY=0;entryDx=0;entryDy=0;" parent="WIyWlLk6GJQsqaUBKTNV-1" source="JPNy9vTnPbDDHeb4EokP-7" target="JPNy9vTnPbDDHeb4EokP-10" edge="1">
          <mxGeometry relative="1" as="geometry" />
        </mxCell>
        <mxCell id="JPNy9vTnPbDDHeb4EokP-7" value="Inicio" style="rounded=1;whiteSpace=wrap;html=1;" parent="WIyWlLk6GJQsqaUBKTNV-1" vertex="1">
          <mxGeometry x="570" y="150" width="120" height="60" as="geometry" />
        </mxCell>
        <mxCell id="JPNy9vTnPbDDHeb4EokP-13" style="edgeStyle=orthogonalEdgeStyle;rounded=0;orthogonalLoop=1;jettySize=auto;html=1;exitX=0.5;exitY=1;exitDx=0;exitDy=0;" parent="WIyWlLk6GJQsqaUBKTNV-1" source="JPNy9vTnPbDDHeb4EokP-10" edge="1">
          <mxGeometry relative="1" as="geometry">
            <mxPoint x="634" y="370" as="targetPoint" />
          </mxGeometry>
        </mxCell>
        <mxCell id="JPNy9vTnPbDDHeb4EokP-10" value="A + B" style="shape=parallelogram;perimeter=parallelogramPerimeter;whiteSpace=wrap;html=1;fixedSize=1;" parent="WIyWlLk6GJQsqaUBKTNV-1" vertex="1">
          <mxGeometry x="574" y="260" width="120" height="60" as="geometry" />
        </mxCell>
        <mxCell id="d6ZGFrausI_-Ne_yfUiG-4" value="verdadeiro" style="edgeStyle=orthogonalEdgeStyle;rounded=0;orthogonalLoop=1;jettySize=auto;html=1;" edge="1" parent="WIyWlLk6GJQsqaUBKTNV-1" source="d6ZGFrausI_-Ne_yfUiG-3">
          <mxGeometry x="-0.2037" y="10" relative="1" as="geometry">
            <mxPoint x="820" y="500" as="targetPoint" />
            <Array as="points">
              <mxPoint x="790" y="430" />
              <mxPoint x="790" y="430" />
            </Array>
            <mxPoint as="offset" />
          </mxGeometry>
        </mxCell>
        <mxCell id="d6ZGFrausI_-Ne_yfUiG-5" value="falso" style="edgeStyle=orthogonalEdgeStyle;rounded=0;orthogonalLoop=1;jettySize=auto;html=1;" edge="1" parent="WIyWlLk6GJQsqaUBKTNV-1" source="d6ZGFrausI_-Ne_yfUiG-3">
          <mxGeometry x="0.0196" y="-10" relative="1" as="geometry">
            <mxPoint x="460" y="500" as="targetPoint" />
            <mxPoint as="offset" />
          </mxGeometry>
        </mxCell>
        <mxCell id="d6ZGFrausI_-Ne_yfUiG-3" value="A&amp;lt;B" style="rhombus;whiteSpace=wrap;html=1;" vertex="1" parent="WIyWlLk6GJQsqaUBKTNV-1">
          <mxGeometry x="594" y="390" width="80" height="80" as="geometry" />
        </mxCell>
        <mxCell id="d6ZGFrausI_-Ne_yfUiG-8" style="edgeStyle=orthogonalEdgeStyle;rounded=0;orthogonalLoop=1;jettySize=auto;html=1;entryX=0;entryY=0.65;entryDx=0;entryDy=0;entryPerimeter=0;" edge="1" parent="WIyWlLk6GJQsqaUBKTNV-1" target="d6ZGFrausI_-Ne_yfUiG-11">
          <mxGeometry relative="1" as="geometry">
            <mxPoint x="470" y="660" as="targetPoint" />
            <mxPoint x="470" y="570" as="sourcePoint" />
            <Array as="points">
              <mxPoint x="470" y="659" />
            </Array>
          </mxGeometry>
        </mxCell>
        <mxCell id="d6ZGFrausI_-Ne_yfUiG-9" style="edgeStyle=orthogonalEdgeStyle;rounded=0;orthogonalLoop=1;jettySize=auto;html=1;exitX=0.5;exitY=1;exitDx=0;exitDy=0;entryX=0.992;entryY=0.633;entryDx=0;entryDy=0;entryPerimeter=0;" edge="1" parent="WIyWlLk6GJQsqaUBKTNV-1" target="d6ZGFrausI_-Ne_yfUiG-11">
          <mxGeometry relative="1" as="geometry">
            <mxPoint x="810" y="660" as="targetPoint" />
            <mxPoint x="810" y="570" as="sourcePoint" />
            <Array as="points">
              <mxPoint x="810" y="658" />
            </Array>
          </mxGeometry>
        </mxCell>
        <mxCell id="d6ZGFrausI_-Ne_yfUiG-11" value="Fim" style="rounded=1;whiteSpace=wrap;html=1;" vertex="1" parent="WIyWlLk6GJQsqaUBKTNV-1">
          <mxGeometry x="574" y="620" width="120" height="60" as="geometry" />
        </mxCell>
        <mxCell id="d6ZGFrausI_-Ne_yfUiG-12" value="A&amp;gt;B" style="shape=document;whiteSpace=wrap;html=1;boundedLbl=1;" vertex="1" parent="WIyWlLk6GJQsqaUBKTNV-1">
          <mxGeometry x="400" y="505" width="120" height="80" as="geometry" />
        </mxCell>
      </root>
    </mxGraphModel>
  </diagram>
</mxfile>
